# xmcd CD database file
#
# Track frame offsets:
#	150
#	31587
#	50353
#	79648
#	111167
#	131778
#	154629
#	176979
#	194250
#	219147
#
# Disc length: 3275 seconds
#
# Revision: 0
# Processed by: cddbd v1.5.1PL0 Copyright (c) Steve Scherf et al.
# Submitted via: CDex 1.51
#
DISCID=7c0cc90a
DTITLE=Masterplan - Live In Osaka [CD1]
DYEAR=2003
DGENRE=Heavy Metal
TTITLE0=Intro-Spirit Never Die
TTITLE1=Enlighten Me
TTITLE2=Crystal Night
TTITLE3=Soulburn
TTITLE4=Sail On
TTITLE5=Drums Solo-Bass Solo
TTITLE6=Woma From Tokyo
TTITLE7=Man On The Silver Mountain
TTITLE8=Kind Hearted Light
TTITLE9=Bleeding Eyes
EXTD=YEAR: 2003
EXTT0=
EXTT1=
EXTT2=
EXTT3=
EXTT4=
EXTT5=
EXTT6=
EXTT7=
EXTT8=
EXTT9=
PLAYORDER=
